<?xml version="1.0" encoding="us-ascii" standalone="no"?><svg xmlns="http://www.w3.org/2000/svg" xmlns:xlink="http://www.w3.org/1999/xlink" contentStyleType="text/css" height="482px" preserveAspectRatio="none" style="width:742px;height:482px;background:#FFFFFF;" version="1.1" viewBox="0 0 742 482" width="742px" zoomAndPan="magnify"><defs/><g><text fill="#000000" font-family="sans-serif" font-size="14" font-weight="bold" lengthAdjust="spacing" textLength="366" x="187" y="27.9951">Political Promise Tracker - Technical Process</text><line style="stroke:#181818;stroke-width:0.5;stroke-dasharray:5.0,5.0;" x1="23" x2="23" y1="118.5938" y2="401.9219"/><line style="stroke:#181818;stroke-width:0.5;stroke-dasharray:5.0,5.0;" x1="104" x2="104" y1="118.5938" y2="401.9219"/><line style="stroke:#181818;stroke-width:0.5;stroke-dasharray:5.0,5.0;" x1="224.5" x2="224.5" y1="118.5938" y2="401.9219"/><line style="stroke:#181818;stroke-width:0.5;stroke-dasharray:5.0,5.0;" x1="328" x2="328" y1="118.5938" y2="401.9219"/><line style="stroke:#181818;stroke-width:0.5;stroke-dasharray:5.0,5.0;" x1="425" x2="425" y1="118.5938" y2="401.9219"/><line style="stroke:#181818;stroke-width:0.5;stroke-dasharray:5.0,5.0;" x1="547" x2="547" y1="118.5938" y2="401.9219"/><line style="stroke:#181818;stroke-width:0.5;stroke-dasharray:5.0,5.0;" x1="684" x2="684" y1="118.5938" y2="401.9219"/><text fill="#000000" font-family="sans-serif" font-size="14" lengthAdjust="spacing" textLength="31" x="5" y="115.292">User</text><ellipse cx="23.5" cy="50.7969" fill="#E2E2F0" rx="8" ry="8" style="stroke:#181818;stroke-width:0.5;"/><path d="M23.5,58.7969 L23.5,85.7969 M10.5,66.7969 L36.5,66.7969 M23.5,85.7969 L10.5,100.7969 M23.5,85.7969 L36.5,100.7969 " fill="none" style="stroke:#181818;stroke-width:0.5;"/><text fill="#000000" font-family="sans-serif" font-size="14" lengthAdjust="spacing" textLength="31" x="5" y="413.917">User</text><ellipse cx="23.5" cy="425.7188" fill="#E2E2F0" rx="8" ry="8" style="stroke:#181818;stroke-width:0.5;"/><path d="M23.5,433.7188 L23.5,460.7188 M10.5,441.7188 L36.5,441.7188 M23.5,460.7188 L10.5,475.7188 M23.5,460.7188 L36.5,475.7188 " fill="none" style="stroke:#181818;stroke-width:0.5;"/><rect fill="#E2E2F0" height="30.2969" rx="2.5" ry="2.5" style="stroke:#181818;stroke-width:0.5;" width="104" x="52" y="87.2969"/><text fill="#000000" font-family="sans-serif" font-size="14" lengthAdjust="spacing" textLength="90" x="59" y="107.292">Web Service</text><rect fill="#E2E2F0" height="30.2969" rx="2.5" ry="2.5" style="stroke:#181818;stroke-width:0.5;" width="104" x="52" y="400.9219"/><text fill="#000000" font-family="sans-serif" font-size="14" lengthAdjust="spacing" textLength="90" x="59" y="420.917">Web Service</text><rect fill="#E2E2F0" height="30.2969" rx="2.5" ry="2.5" style="stroke:#181818;stroke-width:0.5;" width="75" x="187.5" y="87.2969"/><text fill="#000000" font-family="sans-serif" font-size="14" lengthAdjust="spacing" textLength="61" x="194.5" y="107.292">AI Model</text><rect fill="#E2E2F0" height="30.2969" rx="2.5" ry="2.5" style="stroke:#181818;stroke-width:0.5;" width="75" x="187.5" y="400.9219"/><text fill="#000000" font-family="sans-serif" font-size="14" lengthAdjust="spacing" textLength="61" x="194.5" y="420.917">AI Model</text><text fill="#000000" font-family="sans-serif" font-size="14" lengthAdjust="spacing" textLength="94" x="278" y="115.292">Data Sources</text><path d="M310,66.2969 C310,56.2969 328,56.2969 328,56.2969 C328,56.2969 346,56.2969 346,66.2969 L346,92.2969 C346,102.2969 328,102.2969 328,102.2969 C328,102.2969 310,102.2969 310,92.2969 L310,66.2969 " fill="#E2E2F0" style="stroke:#181818;stroke-width:1.5;"/><path d="M310,66.2969 C310,76.2969 328,76.2969 328,76.2969 C328,76.2969 346,76.2969 346,66.2969 " fill="none" style="stroke:#181818;stroke-width:1.5;"/><text fill="#000000" font-family="sans-serif" font-size="14" lengthAdjust="spacing" textLength="94" x="278" y="413.917">Data Sources</text><path d="M310,427.2188 C310,417.2188 328,417.2188 328,417.2188 C328,417.2188 346,417.2188 346,427.2188 L346,453.2188 C346,463.2188 328,463.2188 328,463.2188 C328,463.2188 310,463.2188 310,453.2188 L310,427.2188 " fill="#E2E2F0" style="stroke:#181818;stroke-width:1.5;"/><path d="M310,427.2188 C310,437.2188 328,437.2188 328,437.2188 C328,437.2188 346,437.2188 346,427.2188 " fill="none" style="stroke:#181818;stroke-width:1.5;"/><text fill="#000000" font-family="sans-serif" font-size="14" lengthAdjust="spacing" textLength="68" x="388" y="115.292">Database</text><path d="M407,66.2969 C407,56.2969 425,56.2969 425,56.2969 C425,56.2969 443,56.2969 443,66.2969 L443,92.2969 C443,102.2969 425,102.2969 425,102.2969 C425,102.2969 407,102.2969 407,92.2969 L407,66.2969 " fill="#E2E2F0" style="stroke:#181818;stroke-width:1.5;"/><path d="M407,66.2969 C407,76.2969 425,76.2969 425,76.2969 C425,76.2969 443,76.2969 443,66.2969 " fill="none" style="stroke:#181818;stroke-width:1.5;"/><text fill="#000000" font-family="sans-serif" font-size="14" lengthAdjust="spacing" textLength="68" x="388" y="413.917">Database</text><path d="M407,427.2188 C407,417.2188 425,417.2188 425,417.2188 C425,417.2188 443,417.2188 443,427.2188 L443,453.2188 C443,463.2188 425,463.2188 425,463.2188 C425,463.2188 407,463.2188 407,453.2188 L407,427.2188 " fill="#E2E2F0" style="stroke:#181818;stroke-width:1.5;"/><path d="M407,427.2188 C407,437.2188 425,437.2188 425,437.2188 C425,437.2188 443,437.2188 443,427.2188 " fill="none" style="stroke:#181818;stroke-width:1.5;"/><rect fill="#E2E2F0" height="30.2969" rx="2.5" ry="2.5" style="stroke:#181818;stroke-width:0.5;" width="150" x="472" y="87.2969"/><text fill="#000000" font-family="sans-serif" font-size="14" lengthAdjust="spacing" textLength="136" x="479" y="107.292">Newsletter Service</text><rect fill="#E2E2F0" height="30.2969" rx="2.5" ry="2.5" style="stroke:#181818;stroke-width:0.5;" width="150" x="472" y="400.9219"/><text fill="#000000" font-family="sans-serif" font-size="14" lengthAdjust="spacing" textLength="136" x="479" y="420.917">Newsletter Service</text><rect fill="#E2E2F0" height="30.2969" rx="2.5" ry="2.5" style="stroke:#181818;stroke-width:0.5;" width="104" x="632" y="87.2969"/><text fill="#000000" font-family="sans-serif" font-size="14" lengthAdjust="spacing" textLength="90" x="639" y="107.292">GPT-4 Model</text><rect fill="#E2E2F0" height="30.2969" rx="2.5" ry="2.5" style="stroke:#181818;stroke-width:0.5;" width="104" x="632" y="400.9219"/><text fill="#000000" font-family="sans-serif" font-size="14" lengthAdjust="spacing" textLength="90" x="639" y="420.917">GPT-4 Model</text><polygon fill="#181818" points="92,145.7266,102,149.7266,92,153.7266,96,149.7266" style="stroke:#181818;stroke-width:1.0;"/><line style="stroke:#181818;stroke-width:1.0;" x1="23.5" x2="98" y1="149.7266" y2="149.7266"/><text fill="#000000" font-family="sans-serif" font-size="13" lengthAdjust="spacing" textLength="24" x="30.5" y="144.6606">Use</text><polygon fill="#181818" points="213,189.9922,223,193.9922,213,197.9922,217,193.9922" style="stroke:#181818;stroke-width:1.0;"/><line style="stroke:#181818;stroke-width:1.0;" x1="104" x2="219" y1="193.9922" y2="193.9922"/><text fill="#000000" font-family="sans-serif" font-size="13" lengthAdjust="spacing" textLength="97" x="111" y="173.7935">Data Collection</text><text fill="#000000" font-family="sans-serif" font-size="13" lengthAdjust="spacing" textLength="81" x="111" y="188.9263">and Analysis</text><polygon fill="#181818" points="316,219.125,326,223.125,316,227.125,320,223.125" style="stroke:#181818;stroke-width:1.0;"/><line style="stroke:#181818;stroke-width:1.0;" x1="104" x2="322" y1="223.125" y2="223.125"/><text fill="#000000" font-family="sans-serif" font-size="13" lengthAdjust="spacing" textLength="89" x="111" y="218.0591">Retrieve Data</text><polygon fill="#181818" points="316,248.2578,326,252.2578,316,256.2578,320,252.2578" style="stroke:#181818;stroke-width:1.0;"/><line style="stroke:#181818;stroke-width:1.0;" x1="225" x2="322" y1="252.2578" y2="252.2578"/><text fill="#000000" font-family="sans-serif" font-size="13" lengthAdjust="spacing" textLength="79" x="232" y="247.1919">Scrape Data</text><polygon fill="#181818" points="413,277.3906,423,281.3906,413,285.3906,417,281.3906" style="stroke:#181818;stroke-width:1.0;"/><line style="stroke:#181818;stroke-width:1.0;" x1="225" x2="419" y1="281.3906" y2="281.3906"/><text fill="#000000" font-family="sans-serif" font-size="13" lengthAdjust="spacing" textLength="69" x="232" y="276.3247">Store Data</text><polygon fill="#181818" points="413,306.5234,423,310.5234,413,314.5234,417,310.5234" style="stroke:#181818;stroke-width:1.0;"/><line style="stroke:#181818;stroke-width:1.0;" x1="104" x2="419" y1="310.5234" y2="310.5234"/><text fill="#000000" font-family="sans-serif" font-size="13" lengthAdjust="spacing" textLength="80" x="111" y="305.4575">Access Data</text><polygon fill="#181818" points="535,350.7891,545,354.7891,535,358.7891,539,354.7891" style="stroke:#181818;stroke-width:1.0;"/><line style="stroke:#181818;stroke-width:1.0;" x1="104" x2="541" y1="354.7891" y2="354.7891"/><text fill="#000000" font-family="sans-serif" font-size="13" lengthAdjust="spacing" textLength="78" x="111" y="334.5903">Subscription</text><text fill="#000000" font-family="sans-serif" font-size="13" lengthAdjust="spacing" textLength="81" x="111" y="349.7231">and Updates</text><polygon fill="#181818" points="672,379.9219,682,383.9219,672,387.9219,676,383.9219" style="stroke:#181818;stroke-width:1.0;"/><line style="stroke:#181818;stroke-width:1.0;" x1="225" x2="678" y1="383.9219" y2="383.9219"/><text fill="#000000" font-family="sans-serif" font-size="13" lengthAdjust="spacing" textLength="126" x="232" y="378.856">Content Generation</text><!--SRC=[RPB1ReCm38RlUGgBoqxSUk8m2MrJrSCgDAXssSK4IusM9b6ITjhRpqbPeOMR7N_OltyJLTG4ZTKgAeaQ6czFAX1q7kKtUIYX8taq_pL98GZn16-QJcHY42YZzN08Z6A08WM5SEYvct9e8XIVr4DB_g8a5OdXV4plkNe7xtOWdQ5wbsCnOCGUMK_noX6qzknPGaRImvW_O2cw8Icv7xIddw0fHfOyrpKzhyhRDbsvcIdaV7FLo7PyaCQeh0b7vOB8RfJFiqshv92OybGTLwooIdYnMfDCFRuCcW5gW_etgF3mqMpfYgT6h-X2-LMC_HPKApswTIPvmm1VSAmlXrsHMgR3hp4BrxZVkG_IApSjSt1y83xJRFpDlefNDv7_9TYI8Pzj_0C0]--></g></svg>